# xmcd
#
# Track frame offsets:
#	150
#	13855
#	27547
#	38977
#	49300
#	62267
#	74132
#	89862
#	101532
#	114232
#	125192
#	139010
#	150870
#	161107
#	172267
#	183332
#	195457
#	208490
#	220882
#	235692
#
# Disc length: 3301 seconds
#
# Revision: 2
# Processed by: cddbd v1.5.2PL0 Copyright (c) Steve Scherf et al.
# Submitted via: audiograbber 1.83.01
#
DISCID=2f0ce314
DTITLE=Dolly Parton - Joshua - Coat Of Many Colors
DYEAR=2001
DGENRE=Country
TTITLE0=Joshua
TTITLE1=The Last One To Touch Me
TTITLE2=Walls Of The Mind
TTITLE3=It Ain't Fair That It Ain't Right
TTITLE4=J.j. Sneed
TTITLE5=You Can't Reach Me Anymore
TTITLE6=Daddy's Moonshine Still
TTITLE7=Chicken Every Sunday
TTITLE8=The Fire's Still Burning
TTITLE9=Letter To Heaven
TTITLE10=Coat Of Many Colors
TTITLE11=Travelling Man
TTITLE12=My Blue Tears
TTITLE13=If I Lose My Mind
TTITLE14=The Mystery Of The Mystery
TTITLE15=She Never Met A Man She Didn't Like
TTITLE16=Early Morning Breeze
TTITLE17=The Way I See You
TTITLE18=Here I Am
TTITLE19=A Better Place To Live
EXTD=Original release 1971
EXTT0=
EXTT1=
EXTT2=
EXTT3=
EXTT4=
EXTT5=
EXTT6=
EXTT7=
EXTT8=
EXTT9=
EXTT10=
EXTT11=
EXTT12=
EXTT13=
EXTT14=
EXTT15=
EXTT16=
EXTT17=
EXTT18=
EXTT19=
PLAYORDER=
